<svg xmlns="http://www.w3.org/2000/svg" width="25" height="24" viewBox="0 0 25 24" fill="none"><g id="vuesax/outline/activity"><g id="activity"><path id="Vector" d="M15.6641 22.75H9.66406C4.23406 22.75 1.91406 20.43 1.91406 15V9C1.91406 3.57 4.23406 1.25 9.66406 1.25H15.6641C21.0941 1.25 23.4141 3.57 23.4141 9V15C23.4141 20.43 21.0941 22.75 15.6641 22.75ZM9.66406 2.75C5.05406 2.75 3.41406 4.39 3.41406 9V15C3.41406 19.61 5.05406 21.25 9.66406 21.25H15.6641C20.2741 21.25 21.9141 19.61 21.9141 15V9C21.9141 4.39 20.2741 2.75 15.6641 2.75H9.66406Z" fill="#1B232E"></path><path id="Vector_2" d="M7.99613 15.24C7.83613 15.24 7.67613 15.19 7.53613 15.08C7.20613 14.83 7.14613 14.36 7.39613 14.03L9.77613 10.94C10.0661 10.57 10.4761 10.33 10.9461 10.27C11.4061 10.21 11.8761 10.34 12.2461 10.63L14.0761 12.07C14.1461 12.13 14.2161 12.13 14.2661 12.12C14.3061 12.12 14.3761 12.1 14.4361 12.02L16.7461 9.04001C16.9961 8.71001 17.4761 8.65001 17.7961 8.91001C18.1261 9.16001 18.1861 9.63001 17.9261 9.96001L15.6161 12.94C15.3261 13.31 14.9161 13.55 14.4461 13.6C13.9761 13.66 13.5161 13.53 13.1461 13.24L11.3161 11.8C11.2461 11.74 11.1661 11.74 11.1261 11.75C11.0861 11.75 11.0161 11.77 10.9561 11.85L8.57613 14.94C8.44613 15.14 8.22613 15.24 7.99613 15.24Z" fill="#1B232E"></path></g></g></svg>