<svg xmlns="http://www.w3.org/2000/svg" width="41" height="40" viewBox="0 0 41 40" fill="none"><g id="server"><g id="Group"><path id="Vector" d="M34.8757 1.81836H5.7848C3.77649 1.81836 2.14844 3.44641 2.14844 5.45472V12.7275C2.14844 14.7358 3.77649 16.3638 5.7848 16.3638H34.8757C36.884 16.3638 38.5121 14.7358 38.5121 12.7275V5.45472C38.5121 3.44641 36.884 1.81836 34.8757 1.81836Z" stroke="#D2D9D9" stroke-width="2" stroke-linecap="round" stroke-linejoin="round"></path><path id="Vector_2" d="M34.8757 23.6367H5.7848C3.77649 23.6367 2.14844 25.2648 2.14844 27.2731V34.5458C2.14844 36.5541 3.77649 38.1822 5.7848 38.1822H34.8757C36.884 38.1822 38.5121 36.5541 38.5121 34.5458V27.2731C38.5121 25.2648 36.884 23.6367 34.8757 23.6367Z" stroke="#D2D9D9" stroke-width="2" stroke-linecap="round" stroke-linejoin="round"></path></g></g></svg>